<?xml version="1.0" encoding="utf-8"?>
<svg version="1.1" xmlns:xlink="http://www.w3.org/1999/xlink" width="335px" height="200px" xmlns="http://www.w3.org/2000/svg">
  <g transform="matrix(1 0 0 1 -20 -225 )">
    <path d="M 20 225  L 355 225  L 355 425  L 20 425  L 20 225  " fill-rule="nonzero" fill="#cccccc" stroke="none" />
    <path d="M 34 239  L 341 239  L 341 411  L 34 411  L 34 239  " fill-rule="nonzero" fill="#ffffff" stroke="none" />
    <path d="M 209.2 285  C 200.8 285  194.2 278.4  194.2 270  C 194.2 261.6  200.8 255  209.2 255  C 217.6 255  224.2 261.6  224.2 270  C 224.2 278.4  217.6 285  209.2 285  " fill-rule="nonzero" fill="#cccccc" stroke="none" />
    <path d="M 39 406  L 39 316.9  L 113.25 276.4  L 217.2 347.970149253731  L 276.6 300.7  L 336 347.970149253731  L 336 406  L 39 406  " fill-rule="nonzero" fill="#169bd5" stroke="none" />
  </g>
</svg>